<svg id="Chevrons" xmlns="http://www.w3.org/2000/svg" viewBox="0 0 55 55"><defs><style>.cls-1{fill:#fff;}</style></defs><path class="cls-1" d="M52,3.06,27.952,22.55a.7.7,0,0,1-.45.17.727.727,0,0,1-.46-.17L3,3.06a.718.718,0,0,1,.45-1.28h5.59a.727.727,0,0,1,.45.16L27.5,16.53l18-14.59a.755.755,0,0,1,.46-.16h5.58a.712.712,0,0,1,.68.48A.7.7,0,0,1,52,3.06Z"/><path class="cls-1" d="M52,18.31l-24.05,19.5a.749.749,0,0,1-.45.16.8.8,0,0,1-.46-.16L3,18.31a.714.714,0,0,1-.23-.8.722.722,0,0,1,.68-.48h5.59a.707.707,0,0,1,.46.17l18,14.58,18-14.59a.755.755,0,0,1,.46-.16h5.58a.712.712,0,0,1,.68.48A.7.7,0,0,1,52,18.31Z"/><path class="cls-1" d="M52,33.57,27.952,53.06a.69.69,0,0,1-.45.16.736.736,0,0,1-.46-.16L3,33.57a.726.726,0,0,1,.45-1.29h5.59a.707.707,0,0,1,.46.17l18,14.58,18-14.58a.707.707,0,0,1,.46-.17h5.58A.731.731,0,0,1,52,33.57Z"/></svg>